<?xml version="1.0" standalone="no"?>
<!DOCTYPE svg PUBLIC "-//W3C//DTD SVG 20010904//EN"
 "http://www.w3.org/TR/2001/REC-SVG-20010904/DTD/svg10.dtd">
<svg version="1.0" xmlns="http://www.w3.org/2000/svg"
 width="1024.000000pt" height="1024.000000pt" viewBox="150 150 724 724"
 preserveAspectRatio="xMidYMid meet">

<g transform="translate(0.000000,1024.000000) scale(0.100000,-0.100000)"
fill="#000000" stroke="none">
<path d="M7505 8709 c-26 -41 -313 -222 -489 -308 -56 -27 -229 -112 -386
-189 -553 -269 -871 -482 -1176 -786 -156 -157 -271 -296 -380 -461 -319 -485
-494 -1070 -494 -1651 l0 -161 -44 -94 c-47 -101 -109 -284 -103 -303 2 -6 94
170 205 390 110 221 233 460 272 530 446 799 885 1333 1370 1663 130 89 143
90 50 5 -412 -378 -680 -709 -982 -1214 -144 -240 -255 -445 -501 -925 -232
-454 -345 -664 -535 -1003 -232 -410 -337 -611 -453 -865 -56 -121 -68 -157
-52 -157 3 0 54 46 112 103 130 126 276 252 443 379 69 54 135 108 145 121 13
17 22 56 31 136 30 272 148 585 360 957 l52 91 72 7 c364 35 827 232 1138 483
108 88 256 245 323 343 l58 85 -103 7 c-57 5 -107 9 -112 11 -5 2 15 18 45 36
261 161 512 453 641 745 35 79 88 230 88 250 0 10 -23 7 -87 -11 -49 -12 -103
-23 -122 -23 l-34 0 29 22 c51 37 183 170 248 248 130 156 244 343 326 535 84
194 123 357 136 565 13 225 -46 513 -91 439z m-240 -726 c-65 -277 -273 -609
-513 -819 -98 -86 -235 -180 -332 -229 -72 -36 -189 -79 -197 -72 -2 3 60 51
139 107 441 316 654 551 840 928 39 78 72 142 74 142 1 0 -4 -26 -11 -57z
m-636 -1495 c-58 -85 -187 -218 -284 -291 -144 -108 -413 -218 -530 -216 l-40
0 75 37 c312 152 395 195 470 243 99 65 248 186 305 251 22 24 42 43 43 42 2
-1 -15 -31 -39 -66z"/>
<path d="M3371 8297 c-6 -8 -20 -57 -31 -108 -55 -257 -127 -350 -321 -414
-131 -44 -131 -72 2 -120 190 -69 267 -165 315 -392 25 -118 35 -143 60 -143
21 0 31 27 53 145 24 129 61 211 123 274 58 59 100 84 194 117 123 42 132 75
27 108 -88 28 -151 63 -208 117 -62 59 -99 131 -127 247 -36 155 -43 177 -59
180 -9 2 -21 -4 -28 -11z"/>
<path d="M4246 7168 c-7 -18 -20 -54 -30 -79 -19 -52 -50 -85 -121 -126 -66
-39 -66 -60 3 -96 66 -36 100 -78 132 -164 35 -92 56 -93 88 -3 31 87 61 123
135 162 82 44 82 61 -2 108 -71 40 -102 78 -127 155 -28 84 -55 99 -78 43z"/>
<path d="M2601 7073 c-5 -10 -21 -75 -35 -144 -43 -211 -70 -273 -155 -362
-65 -68 -143 -114 -259 -152 -67 -22 -83 -31 -88 -50 -9 -34 -1 -41 74 -66
173 -57 298 -152 356 -273 35 -74 40 -91 71 -243 26 -131 38 -163 59 -163 26
0 37 29 61 152 31 157 56 226 112 310 67 102 144 158 278 203 110 37 117 41
113 73 -3 24 -12 30 -104 63 -119 41 -189 84 -245 148 -74 83 -106 162 -154
380 -14 63 -30 120 -36 127 -16 19 -36 17 -48 -3z"/>
<path d="M3684 4919 c-106 -8 -213 -24 -464 -70 -157 -30 -412 -31 -555 -4
-55 11 -122 20 -150 20 l-50 0 -71 -215 c-52 -158 -75 -214 -85 -211 -8 2 -43
6 -79 8 -77 5 -117 -15 -142 -68 -9 -19 -91 -266 -183 -549 -91 -283 -247
-758 -346 -1055 -121 -365 -179 -554 -179 -583 0 -114 84 -168 295 -192 56 -6
619 -10 1482 -10 953 0 1400 -3 1419 -11 16 -5 52 -33 81 -60 83 -78 187 -118
368 -140 172 -22 401 8 518 67 28 15 71 44 95 66 24 22 62 48 85 59 41 18 88
19 1465 19 1576 0 1471 -4 1512 63 41 67 42 64 -135 589 -92 271 -281 831
-420 1243 -312 925 -322 955 -336 971 -16 19 -46 18 -169 -7 -82 -17 -143 -22
-275 -23 -169 0 -241 7 -429 45 -179 36 -308 50 -471 50 -390 1 -680 -80 -970
-271 -99 -66 -253 -189 -309 -249 l-29 -30 -84 79 c-82 76 -221 180 -242 180
-11 0 -111 -193 -111 -214 0 -7 28 -32 63 -56 73 -52 144 -116 198 -181 l39
-47 3 -881 c1 -485 0 -881 -4 -881 -3 0 -21 16 -40 36 -48 50 -212 175 -311
236 -157 98 -364 185 -553 232 -152 38 -277 51 -505 50 -252 0 -343 -12 -657
-84 -302 -70 -389 -83 -578 -83 -143 0 -182 3 -249 22 -44 11 -81 23 -83 25
-4 3 432 1301 577 1724 l22 62 66 -7 c37 -5 144 -7 237 -7 152 2 196 6 410 44
354 62 570 65 871 14 30 -6 32 -3 93 101 46 78 59 110 50 115 -18 12 -203 48
-299 59 -131 15 -264 18 -386 10z m3161 -283 c297 -55 343 -59 540 -58 105 1
205 3 224 4 l34 3 52 -155 c203 -599 451 -1329 494 -1454 28 -82 51 -154 51
-161 0 -17 -97 -42 -215 -56 -174 -19 -338 0 -694 81 -278 63 -390 80 -586 87
-317 11 -597 -38 -865 -154 -189 -81 -400 -213 -547 -341 l-63 -54 0 871 0
870 49 59 c93 112 212 203 401 307 187 102 293 140 476 170 142 23 471 13 649
-19z m-2915 -1981 c184 -31 461 -138 622 -241 71 -45 250 -185 244 -191 -1 -1
-38 13 -82 32 -188 81 -382 114 -724 122 -260 6 -387 -1 -825 -42 -143 -14
-348 -32 -455 -41 -204 -16 -807 -31 -834 -21 -13 5 -8 26 29 138 25 73 46
134 49 136 2 2 50 -6 107 -18 86 -19 137 -23 289 -23 212 0 321 13 590 75 211
48 356 76 470 88 117 13 405 6 520 -14z m2984 10 c71 -8 226 -37 345 -65 260
-59 347 -75 511 -91 150 -14 304 -6 448 22 58 12 107 18 111 13 10 -12 91
-245 91 -263 0 -12 -48 -13 -307 -8 -294 6 -509 21 -948 66 -309 33 -456 41
-710 41 -416 0 -731 -45 -913 -130 -41 -19 -60 -24 -51 -14 25 31 207 161 280
201 117 65 352 161 457 189 199 52 454 66 686 39z"/>
</g>
</svg>
